<svg xmlns="http://www.w3.org/2000/svg" xmlns:xlink="http://www.w3.org/1999/xlink" viewBox="5006 548.81 136.485 76.19" width="160" height="90">
  <defs>
    <style>
      .cls-1 {
        fill: #225b00;
      }

      .cls-2 {
        fill: #2e7a01;
      }

      .cls-3 {
        fill: #153a00;
      }

      .cls-4 {
        clip-path: url(#clip-path);
      }

      .cls-5 {
        fill: #c8ecb8;
      }

      .cls-6, .cls-7 {
        fill: none;
        stroke: #225b00;
        stroke-width: 2px;
      }

      .cls-6 {
        stroke-miterlimit: 10;
      }
    </style>
    <clipPath id="clip-path">
      <rect id="Rectangle_1863" data-name="Rectangle 1863" width="71.4" height="61.99"/>
    </clipPath>
  </defs>
  <g id="Group_561" data-name="Group 561" transform="translate(4953.887 499.8)">
    <g id="Group_558" data-name="Group 558" transform="translate(52.113 49.5)">
      <path id="Path_1401" data-name="Path 1401" class="cls-1" d="M132.586,81.693H5.675A3.585,3.585,0,0,1,2.1,78.118L8.088,59.975A3.585,3.585,0,0,1,11.663,56.4H127.581a3.585,3.585,0,0,1,3.575,3.575L136.7,76.956C136.876,79.1,134.821,81.693,132.586,81.693Z" transform="translate(-0.223 -5.993)"/>
      <path id="Path_1402" data-name="Path 1402" class="cls-2" d="M131.38,79.993H3.575A3.585,3.585,0,0,1,0,76.418L5.988,58.275A3.585,3.585,0,0,1,9.563,54.7H125.481a3.585,3.585,0,0,1,3.575,3.575l5.9,18.143A3.585,3.585,0,0,1,131.38,79.993Z" transform="translate(0 -5.812)"/>
      <path id="Path_1403" data-name="Path 1403" class="cls-1" d="M110.2,54.7V64.71L120.21,54.7Z" transform="translate(-11.71 -5.812)"/>
      <rect id="Rectangle_1861" data-name="Rectangle 1861" class="cls-3" width="73.644" height="1.966" transform="translate(31.907 59.523)"/>
      <rect id="Rectangle_1862" data-name="Rectangle 1862" class="cls-1" width="73.644" height="0.804" transform="translate(31.907 61.489)"/>
    </g>
    <g id="Group_560" data-name="Group 560" transform="translate(85 49.01)">
      <g id="Group_559" data-name="Group 559" class="cls-4">
        <path id="Path_1404" data-name="Path 1404" class="cls-5" d="M62.481,91.1H9.492a3.609,3.609,0,0,1-3.592-3.6V10A3.609,3.609,0,0,1,9.492,6.4h.988l5.029,3.694L20.36,6.4l5.209,3.694L30.6,6.4l5.029,3.694L40.657,6.4l5.029,3.694L50.716,6.4l5.029,3.694L60.775,6.4h1.8A3.609,3.609,0,0,1,66.163,10V87.492A3.748,3.748,0,0,1,62.481,91.1Z" transform="translate(-0.601 -0.633)"/>
        <line id="Line_1234" data-name="Line 1234" class="cls-6" x2="22.722" transform="translate(16.346 23.475)"/>
        <path id="Path_1405" data-name="Path 1405" class="cls-7" d="M0,0H34.4" transform="translate(16.346 32.69)"/>
        <line id="Line_1235" data-name="Line 1235" class="cls-6" x2="22.722" transform="translate(16.346 41.922)"/>
        <line id="Line_1236" data-name="Line 1236" class="cls-6" x2="30.985" transform="translate(16.346 51.124)"/>
      </g>
    </g>
  </g>
</svg>
